<?xml version="1.0" encoding="UTF-8" standalone="no"?>
<!DOCTYPE svg PUBLIC "-//W3C//DTD SVG 20010904//EN"
              "http://www.w3.org/TR/2001/REC-SVG-20010904/DTD/svg10.dtd">

<svg xmlns="http://www.w3.org/2000/svg"
     width="0.973333in" height="0.973333in"
     viewBox="0 0 292 292">
  <path id="Selection #1"
        fill="none" stroke="black" stroke-width="1"
        d="M 57.00,257.00
           C 62.75,255.60 67.18,256.03 73.00,256.00
             75.18,255.99 77.94,256.07 79.98,255.26
             85.19,253.22 89.93,242.91 92.72,238.00
             92.72,238.00 124.28,183.00 124.28,183.00
             124.28,183.00 139.15,157.00 139.15,157.00
             140.70,154.37 143.08,149.69 146.90,151.17
             149.57,152.20 152.31,157.55 153.81,160.00
             153.81,160.00 168.42,184.00 168.42,184.00
             168.42,184.00 201.40,238.00 201.40,238.00
             206.72,246.86 209.38,255.84 221.00,256.00
             226.69,256.07 229.26,255.60 235.00,257.00
             234.34,259.22 234.28,259.95 232.69,261.83
             228.06,267.29 210.09,276.54 203.00,279.57
             165.56,295.58 130.86,295.86 93.00,281.19
             84.02,277.71 75.05,272.92 67.00,267.66
             62.05,264.41 58.76,262.93 57.00,257.00 Z" />
</svg>
